<?xml version="1.0" encoding="UTF-8"?>
<svg version="1.1" viewBox="0 0 900 900" width="225" height="225" xmlns="http://www.w3.org/2000/svg">
<path transform="translate(495,307)" d="m0 0 12 3 16 8 12 5 11 8 5 3v2l-9 4-11 6-4 4h-2l-2 4-5 8-5 12-1 6 2 16 4 10 7 11 9 8 12 6 12 3h7l17-4 12-7 10-9 3-2 4 11 4 27v22l-2 7h-7l-12-4-5-1-13 1-12 2-8 3v2l8 5 16 3 2 1v2l-6 2-1 5-29 14-4 3-1 8 12-4 3 1-9 5-5 3-2 5 2 4 5 1 9-2-7 7 4 4 10-3 15-8 6-3 5 1v2l-16 8-7 4v3h9l17-7v3l-10 14-7 11-10 9-1 4 7 12 8 16 1 3-4 2 7 5 5 11-1 3-20-8-26-7-16-3-17-1-21 2-15 4-17 7-8-2-21-7-16-3h-27l-24 4-28 8-10 5h-2l3-12 6-4 1-3h-6l1-5 14-26 3-7-4-2-11-9-17-25v-2l6 1 22 11h5l1-5-6-5-17-9v-2l5 1 11 6 13 6 5-1 3-2v-3l-16-8-13-7-1-3 9 3 18 10 9 3 3-1 3-9-6-2-22-10-7-4v-2l6 1 19 10 9 4-1-8-5-4-27-14-6-4-3-4v-2l10-2 11-3-1-5-7-4-11-2h-7l-10 4-5 1h-8l-7-1-3-5v-22l5-29 4-11 4 2 9 8 12 9 16 3 15-1 11-4 13-8 3-1 2-4 7-17 2-10v-12l-6-15-6-9-11-9-11-7-3-3 16-10 15-8 10-5h2l1 21 5 17 6 12 8 7 5 3 16 5h15l12-3 9-4 8-6 7-8 6-12 1-10v-17zm113 166 1 3 1-3zm-98 75m-128 1m131 0m-136 1m-3 1m13 0-12 4-15 8-8 6-14 26-9 17 1 2 30-8 24-4h31l20 4 14 5h3v-41l-5-5-14-9-12-4-6-1zm96 0-10 4-10 6-8 7v43l10-3 15-4 13-2h28l23 4 26 7h3l-2-6-14-26-6-10-7-6-19-9-11-4-5-1zm37 0m-148 1m85 7m-7 1m6 0m-4 1 2 2 2-2zm108 17m1 1 1 3v-3zm-179 25-29 6-14 4v1h10l18-5 15-3h27l17 3 16 5 9 4 5-1v-2h6l17-6 5-2 22-2 16-1v-1h-27l-19 3-18 6-3 2v2l-12-6-18-5-11-2zm146 2v1h5v-1zm6 1 3 2 21 6 12 3 5 1-3-3-25-7-9-2z" fill="#E98428"/>
<path transform="translate(415,692)" d="m0 0h78l25 1 46 4 64 8 36 6 40 8 10 3-3 11-11 30-11 29-2 4-10-1-41-8-51-7-39-4-51-3h-77l-39 2-41 3-42 5-60 11-17 4h-5l-8-20-10-28-6-17-2-5 1-5 21-4 25-6 46-8 36-5 25-2 25-3zm117 27v4h6v2h-3l-3 4-1 11 6 8 6 1 4-4 6-8 4-1v-3l-4-1-2-9-3-3-3-1zm-192 2-2 2 8 2v2l3-1-1-5zm217 4-1 3 1 5h2v-8zm-121 1-1 5-1 8-3 1 1-2v-11h-6l3 14-4-1-2-7-4-6h-4l2 4 3 8 2 5 2 1h10l5-2 1-1v-15zm-26 1-2 2 1 3 1 13h4l1-2-1-15zm35 0v12l-1 5h5l1-4-1-13zm9 0-4 5v7l4 5 4 1 3-1 3-10-2-7zm14 0v17h4l2-17zm8 0v16l6 1 2-2v-7l-3-6-2-2zm11 0-1 12-2 5 2 2 5-1v-18zm9 0-1 2 1 15h4v-16zm8 0-1 3 1 15h4v-17zm-170 0-3 4v9l3 5 6 5h6l7-7 2 4 7 1 2-6 6 4 2 2 4-1-2-5-5-5-7-8-5-1-9 14-1 1h-6l-4-4-2-12zm50 0-4 2-1 7-5-8h-5l1 4 11 12v6l5-1 3-4-4-6v-7h3l4 9 6 4 6-1 2-6-2-10-1-1h-5l1 4 5 9-5-2-6-9zm127 1 1 17h3l1-2v-12l-1-3zm54 3-2 4 6 2 1 3-3 6-4 2-7-4-2-5h-1v8l2 2 7 2h5l4-4 5 3 4 3h7l4-2 1 1 1 9h2l2-6 4-1-1-4-5 1-1-3h-2v-13l-1-2h-2l-1 2-1 14-9-3-4-8-5-6zm48 1-2 2-2 7-4 2 1 10 1 3 6 1-1-5v-10l1-5h2l1-4zm-316 1-3 2 1 18-2-1-2-11-2-3h-5l-4 6v11l1 2h7l12-2 1-1-1-16-1-3 3 3 1 4v13h5l3-7v-10l-7-3-3-2zm281 0 1 5 4 5v-7l-3-3zm-332 1-5 5-1 2v12l3 7 3 3h8l5-3 1-1 1-16-8-9zm67 0-2 4 1 2 1 13 6-1 3-4-2-9-2-4zm307 1m-62 1 1 9 9-1-1-4-6-4zm63 0v2h2v-2zm-21 1-3 1-2 6 1 4 5-3 3-5-3-3zm16 2-1 2 1 13 2 4 6 1 3-2v-15l-4-1 1 16h-4v-16zm-346 1 2 15v2l-3-2-3-11h-4l2 12 2 4 9-1 2-1-1-9-1-8zm362 2v16l5 3 11 3 4-1v-16l-2-2-4 1 2 2 1 8v4h-6v-12l-2 1-2 8h-2l-1-11-2-4z" fill="#099957"/>
<path transform="translate(388,549)" d="m0 0h32l18 6 11 6 6 3 8-7 8-4 13-4h25l19 5 17 8 9 7 6 8 3 5 3 9 5 8 8 16 1 3-4 2 7 5 5 11-1 3-20-8-26-7-16-3-17-1-21 2-15 4-17 7-8-2-21-7-16-3h-27l-24 4-28 8-10 5h-2l3-12 6-4 1-3h-6l1-5 14-26 7-14 9-10 10-7 13-5 5-2zm-1 2-12 4-15 8-8 6-14 26-9 17 1 2 30-8 24-4h31l20 4 14 5h3v-41l-5-5-14-9-12-4-6-1zm96 0-10 4-10 6-8 7v43l10-3 15-4 13-2h28l23 4 26 7h3l-2-6-14-26-6-10-7-6-19-9-11-4-5-1zm-101 53-29 6-14 4v1h10l18-5 15-3h27l17 3 16 5 9 4 5-1v-2h6l17-6 5-2 22-2 16-1v-1h-27l-19 3-18 6-3 2v2l-12-6-18-5-11-2zm146 2v1h5v-1zm6 1 3 2 21 6 12 3 5 1-3-3-25-7-9-2z" fill="#194485"/>
<path transform="translate(340,344)" d="m0 0 12 1 9 4 9 6 7 8 5 14 1 5v8l-4 12-7 10-8 7-11 5-5 1h-14l-12-4-10-8-6-9-3-8-1-6v-11l4-12 6-9 9-8 12-5z" fill="#143F85"/>
<path transform="translate(440,287)" d="m0 0h15l9 3 9 6 6 5 5 8 3 9 1 10-2 10-7 14-8 8-10 5-12 3-11-1-10-4-9-7-7-8-4-9-1-5v-13l4-13 4-6 4-5 11-7z" fill="#143F85"/>
<path transform="translate(558,344)" d="m0 0h10l9 2 9 5 7 6 7 12 3 11v8l-3 12-7 12-9 7-11 5-7 1h-10l-10-3-9-6-8-9-5-10-1-3v-17l3-10 6-9 7-7 10-5z" fill="#143F85"/>
<path transform="translate(478,131)" d="m0 0 11 2 15 6 9 7 4 6-1 5-9 13-9 10-10 7-10 4h-21l-13-2-5-3-2-4v-10l8-16 8-11 9-13z" fill="#143F85"/>
<path transform="translate(185,736)" d="m0 0 4 4 11 31 13 32 21-3 2 3-1 5-30 9-18 6-3-1v-18l1-25-30-20-5-4 1-3 23-11 9-3z" fill="#099857"/>
<path transform="translate(713,738)" d="m0 0 10 3 16 7 9 6-5 5-10 7-15 9-5 6v42l-5-1-34-10-13-4-1-2 6-9 10 1 15 2 1-7 10-26 10-28z" fill="#0E8D53"/>
<path transform="translate(388,549)" d="m0 0h32l18 6 11 6 6 3 8-7 8-4 13-4h25l19 5 17 8 9 7 6 8 3 5 3 9 5 8 8 16 1 3-5 1-6-3-22-6-10-2 17 5v1l-10-1-17-3-11-1h-20l-13 2h-6l4-3 11-2 14-1h-11l-19 3-18 6-3 3-5-2-13-5-23-5h-32l-29 6-10 3 6 1-3 2-17 5v-3h-6l1-5 14-26 7-14 9-10 10-7 13-5 5-2zm-1 2-12 4-15 8-8 6-14 26-9 17 1 2 30-8 24-4h31l20 4 14 5h3v-41l-5-5-14-9-12-4-6-1zm96 0-10 4-10 6-8 7v43l10-3 15-4 13-2h28l23 4 26 7h3l-2-6-14-26-6-10-7-6-19-9-11-4-5-1zm45 55v1h5v-1z" fill="#628A83"/>
<path transform="translate(164,505)" d="m0 0 4 2 5 5 11 7 14 7 13 4 6 5 8 11 7 15 4 12v4l-9-1-19-7-13-7-12-11-8-10-6-13-4-14z" fill="#154085"/>
<path transform="translate(730,365)" d="m0 0 3 1 5 20 1 15-4 20-6 12-8 12-9 10-8 7-3-3-3-23v-12l4-15 11-12 7-10 7-13z" fill="#154085"/>
<path transform="translate(421,126)" d="m0 0 9 2 13 6 7 1-1 5-10 15-6 12-1 14 2 6 1 4-1 2-11 3h-16l-5-3-2-3v-9l3-7 3-25 4-10 7-9z" fill="#154085"/>
<path transform="translate(184,568)" d="m0 0 4 2 10 6 16 5 16 3 9 2 10 8 7 7 11 16 5 9-7 1-25-4-16-6-12-7-16-16-8-14-4-10z" fill="#154085"/>
<path transform="translate(712,573)" d="m0 0h3l-1 5-4 10-9 13-10 10-14 9-16 6-19 3-13 1 1-4 8-13 9-12 12-11 7-2 16-3 13-3z" fill="#154085"/>
<path transform="translate(228,632)" d="m0 0 8 2h37l10-1 15 8 13 10 11 10v3l-12 3-8 1h-25l-13-3-12-6-14-11-7-8-3-5z" fill="#164186"/>
<path transform="translate(668,636)" d="m0 0h5l-2 5-9 10-9 8-12 7-18 5h-30l-15-3v-4l13-12 14-10 9-5h14l7 1h23z" fill="#154085"/>
<path transform="translate(733,510)" d="m0 0 3 1-2 14-4 11-8 12-11 12-11 8-15 7-21 6 1-6 6-17 7-13 9-10 2-2 17-6 14-7 12-9z" fill="#143F85"/>
<path transform="translate(155,435)" d="m0 0 4 4 4 6 9 9 15 11 9 5 8 16 3 9 2 15v11l-5-1-19-12-13-12-7-8-6-13-4-15-1-7v-17z" fill="#154085"/>
<path transform="translate(535,163)" d="m0 0 19 7 15 9 14 14 9 17 5 15 3 16v2l-6-1-12-5-12-8-10-8-4-6-6-22-9-19-6-9z" fill="#143F85"/>
<path transform="translate(602,193)" d="m0 0 6 2 12 8 9 9 10 17 4 11 3 18v14l-2 12-5-2-11-10-7-6-11-15-2-4v-30l-3-14z" fill="#154085"/>
<path transform="translate(658,240)" d="m0 0 6 5 11 14 8 16 4 18v11l-4 23-6 13-5-4-10-15-6-11-4-12 1-9 2-5 3-17z" fill="#164186"/>
<path transform="translate(743,439)" d="m0 0 3 1 1 12-3 16-6 16-7 11-12 13-10 7-13 8-5 1-1-4 3-21 7-19 5-7 11-7 9-7 11-9z" fill="#154085"/>
<path transform="translate(168,364)" d="m0 0 3 1 5 12 6 10 9 12 8 9 3 13v17l-4 22-4-2-7-8-7-7-10-15-5-12-2-8v-24l4-17z" fill="#143F85"/>
<path transform="translate(197,295)" d="m0 0h2l4 16 5 15 9 19 1 5-3 17-9 22-2 4-4-2-8-13-6-15-3-11-1-15 4-19 6-15z" fill="#143F85"/>
<path transform="translate(362,161)" d="m0 0 3 1-9 13-8 20-4 16-3 5-11 10-13 8-13 6h-3l1-13 6-20 7-13 8-10 8-8 13-8z" fill="#154085"/>
<path transform="translate(700,300)" d="m0 0 5 4 8 14 2 5 2 15v15l-4 16-7 16-7 12h-2l-10-21-3-11-1-8v-9l7-16 5-11 4-14z" fill="#154085"/>
<path transform="translate(239,239)" d="m0 0h1l2 25 6 30-5 14-7 13-10 14-1 2h-2l-6-16-3-14v-21l3-13 8-16 8-11z" fill="#154085"/>
<path transform="translate(295,190)" d="m0 0h2l-2 9-3 18-1 28-6 10-9 10-11 10-8 6-2-9v-23l4-17 8-16 9-11 7-7z" fill="#143F85"/>
<path transform="translate(381,92)" d="m0 0h3l16 24 6 11 2 5-6 15-3 7-6-2-21-10-16-9 4-7 8-13 11-17z" fill="#143F85"/>
<path transform="translate(401,768)" d="m0 0h103l27 1 10 2 39 3 9 2 15 2 1 2-12 1-35-4-42-3-21-1h-77l-39 2-41 3-42 5-55 10h-6l3-4 12-2 9-2 4-1 25-5 34-4 26-3 40-3z" fill="#077F45"/>
<path transform="translate(501,88)" d="m0 0 3 3 11 21 8 13v2l-16 5-4 1h-2v-2h-10l-14-2-9-2-1-2 1-2h2l2-4 13-13 7-8z" fill="#154085"/>
<path transform="translate(331,675)" d="m0 0h9l12 4 20 9 2 3-6 1-27 2-35 5h-9l-18-14v-2h18l14-2 15-4z" fill="#184385"/>
<path transform="translate(521,161)" d="m0 0 4 4 12 21 6 18 1 8h-6l-15-6-16-10-8-7 2-5 3-1 2-4 14-17zm-16 25 1 3v-3z" fill="#174285"/>
<path transform="translate(391,157)" d="m0 0 8 4v7l-2 10-1 18-5 3-14 5-16 4-1-3 9-21 8-13 9-11z" fill="#164185"/>
<path transform="translate(307,273)" d="m0 0h5l10 7 18 11-1 3-6 2-3-3-4 1-3 3-3 1v9l-8 9-7-1-4-2h-6l1 5 6 7-2 4-4-2-10-9-8-7-4-4 2-4 10-10 5-1 7 4 2 3 1 7 13 3-5-16-4-13-1-5zm6 10 2 6 2 4h2l1-5-6-5zm-25 15-5 4-1 5 5 3 6-2 2-5-2-4z" fill="#3C745F"/>
<path transform="translate(562,677)" d="m0 0 7 1 10 4 16 3 10 1h15l-6 7-5 5-26-2-29-3-24-2 4-3 25-10z" fill="#1C4786"/>
<path transform="translate(388,549)" d="m0 0h32l18 6 11 6 6 3 8-7 8-4 13-4h25l19 5 17 8 6 5-1 2-4-3-10-4-16-7-11-3h-26l-10 4-10 6-8 7-1 30h-1l-2-29-1-3-4-2-15-9-16-4h-28l-12 4-15 8-7 5-14 26-10 18-2 6h-4l1-5 14-26 7-14 9-10 10-7 13-5 5-2z" fill="#265070"/>
<path transform="translate(544,565)" d="m0 0 10 4 6 8 3 5 3 9 5 8 8 16 1 3-5 1-6-3-22-6-10-2 17 5v1l-10-1-17-3-11-1h-20l-13 2h-6l4-3 11-2 26-2-22-1 3-2h22l23 4 26 7 3 1-11-21-11-20-7-6zm-16 41v1h5v-1z" fill="#386085"/>
<path transform="translate(465,225)" d="m0 0 6 1 6 16h2l2-15h6l1 5-2 21-3 9-5-2-6-8-2-11h-2v10l-1 7-3 1-3-1-1-2 1-14 3-16z" fill="#528D75"/>
<path transform="translate(633,504)" d="m0 0h7l24 8 2 2-1 5-13 4-1 5h6l3 2-1 5-11-3-16-5-5-3 2-5 9-4 4-2h6l-15-4z" fill="#518972"/>
<path transform="translate(234,418)" d="m0 0h10l9 4 3 4 1 9-3 8-5 4-11 1-9-2-6-5-3-7 1-6 3-5 6-4zm-2 7-5 4v7l6 5 5 1 7-2 3-3v-5l-4-5-4-2z" fill="#427363"/>
<path transform="translate(580,774)" d="m0 0h7l9 1 21 3 13 1 9 1 3 2 1-2 9 2 7 1 7 2 9 1 4 3v3h3v-2l3-2h4l-1 7-1 1-10-1-41-8-42-6v-1l10-1-22-3z" fill="#0D8D52"/>
<path transform="translate(651,375)" d="m0 0h7l5 3 4 6v11l-5 7-10 5h-9l-7-4-4-6-1-5 2-7 8-7 4-2zm0 6-8 3-4 4-1 4 3 5 2 1h8l9-3 2-4-1-7-4-3z" fill="#4B8E72"/>
<path transform="translate(568,258)" d="m0 0 4 2 9 7 4 6-4 8-5 4-2 1-4 14-4-1-2-2v-14l-2-4-4 4-3 5h-5l-1-5 11-15 6-9zm2 7-6 8v2l8 3 5-1 1-5-6-7z" fill="#457C67"/>
<path transform="translate(595,279)" d="m0 0 7 3 5 5 1 3v7l-2 3-4-2-2-9-2-2h-5l3 9 3 6-1 7-9 7-6-1-8-8-1-6 4-9h3l2 13 3 3h5l-2-6-4-10 1-5 6-7z" fill="#376D5A"/>
<path transform="translate(450,223)" d="m0 0 5 1 1 5v20l-3 6-7 4-8-1-5-3-2-7v-21l1-3h5l2 20 2 7h5l1-7 1-20z" fill="#2B6D52"/>
<path transform="translate(641,476)" d="m0 0 29 5 3 2-1 12-3 9-5-1 1-13h-4l-4 10-3 2-2-2v-14l-6-2-2 6-1 9h-7l1-9 3-13z" fill="#437464"/>
<path transform="translate(539,244)" d="m0 0h5l13 8 2 2-1 5-11-6-5 1-2 5 10 4 2 3v3l-3 1-8-4-3-3-2 3v5l3 3 9 4-1 5-4 1-8-4-9-6 2-9 8-16z" fill="#377464"/>
<path transform="translate(240,372)" d="m0 0h12l10 5 4 5 1 7-3 7-5 5h-16l-6-3-6-8 1-10 6-7zm5 5-6 3-3 6 7 8 9 3 6-3 2-3-1-6-2-4-5-3z" fill="#477968"/>
<path transform="translate(184,737)" d="m0 0 2 1v3l2 2-2 7-2 1v-3l-5 2-1 2h-2l1 3-6 1-3 1v4l5 4 8 5v2h2l1 4-5-1-15-10-13-9v-4l23-11 9-3z" fill="#0E8D53"/>
<path transform="translate(614,548)" d="m0 0 4 2 8 8 10 14 2 7-1 2-8-1-9-2-20-6 2-4 5-1 5 1 5-6-1-5-2-4z" fill="#3A6A5B"/>
<path transform="translate(642,448)" d="m0 0h21l11 1 1 1v5l-3 1-5-1 2 5 4 4 1 8-2 2-6-7-3-2-7 1-10 6-5 1-1-4 4-4 10-6 2-3-7-1-8-2z" fill="#568A75"/>
<path transform="translate(267,314)" d="m0 0 3 1-1 5-5 6v4l3 2 4-1 6-8 3-1 2 1-1 5-5 7 1 4 5 2 5-6 2-5 7 2-2 4-7 10-2 4-3 1-20-14-6-4-1-3 7-10z" fill="#639380"/>
<path transform="translate(264,519)" d="m0 0h4l1 5-12 6 3 7v3l12-5 4 1v4l-23 11-7 2-2-4 10-6-3-11-8 4h-6v-4l14-8z" fill="#3D7961"/>
<path transform="translate(257,491)" d="m0 0 4 4 4 14-1 5-10 4-15 3-5 2-2-1-4-15v-6l4 1 4 8 1 4 5-2-1-13 3-1 4 4v8l8-2 1-4-1-12z" fill="#3F6F60"/>
<path transform="translate(251,342)" d="m0 0h6l10 6-1 9-1 7 7 4v6l-3 1-14-7-10-6-3-2 1-5 6-11zm5 7-6 5 1 4 3 2h4l2-5-1-5z" fill="#487868"/>
<path transform="translate(665,799)" d="m0 0 5 1 4 1 8 1 1 2 8 4 5 2 8 4v2l6-2 1-3 2 1v11l-5-1-34-10-13-4-1-2z" fill="#0D8B51"/>
<path transform="translate(307,273)" d="m0 0h5l10 7 18 11-1 3-6 2-3-3-4 1-3 3-6 3-2-3 1 6h-3-1l-5-18-3-6v-4zm6 10 2 6 2 4h2l1-5-6-5z" fill="#4A8C71"/>
<path transform="translate(401,229)" d="m0 0h6l-1 5-9 2-1 4 1 2 13-1 1 4-10 5h-2l2 7 13-1 2 2v3l-8 2-12 1-3-5-5-23 1-4z" fill="#26605A"/>
<path transform="translate(507,233)" d="m0 0 5 1 2 2v20l9-11 5-5 5-1-1 6-10 15-4 5-5 4h-5l-1-1z" fill="#3C7179"/>
<path transform="translate(245,452)" d="m0 0 6 2 4 5 1 3v7l-4 6-7 4h-12l-8-4-4-6v-7l4-6 1-1h6l-1 4-3 3v7l5 3h6l9-4v-6l-5-5 1-4z" fill="#346756"/>
<path transform="translate(185,792)" d="m0 0h2l1 23 10-2 7-3 12-5 13-4 4-1 2 3-1 5-30 9-18 6-3-1v-18z" fill="#0A7C45"/>
<path transform="translate(376,235)" d="m0 0 3 1 2 10 1 11v12l-1 2h-6l-9-10-11-17 1-2 5 1 9 10 4 6 2 1-1-5v-19z" fill="#26664E"/>
<path transform="translate(640,331)" d="m0 0 4 2 1 7-5 6v1l10 1 2 2-1 5-16 1-9 3-5 2-5-1 1-4 10-7 8-9z" fill="#457264"/>
<path transform="translate(667,407)" d="m0 0h4l1 3v17l-4-1-2-10h-7l1 4v7l-5 1-1-1-2-10h-13l-1-4 7-3 11-2z" fill="#4D856F"/>
<path transform="translate(681,715)" d="m0 0 9 1 22 5 2 1-3 11-5 13h-5l2-12-2-6h-3l-5-5-7-3v-2l-4-1z" fill="#158E57"/>
<path transform="translate(623,308)" d="m0 0 4 2 11 16-1 4-5-1-2-5-9 5-10 8-3 2-5-1-1-2 4-4 10-8 8-6v-3l-4-2z" fill="#3D6C5E"/>
<path transform="translate(621,538)" d="m0 0 10 3 4 2h11l8 1 1 2-2 3h-12l5 10-2 7-4-4-10-14-10-6v-3z" fill="#2D6759"/>
<path transform="translate(338,253)" d="m0 0 3 3-1 3-4 2 1 5 7 10 4 7v4l-5 1-10-17-3-4-9 2-2-3 5-5z" fill="#396E63"/>
<path transform="translate(281,551)" d="m0 0h3l1 4-10 7-11 7v2 8h-3l-8-11-3-5 1-5 5 1v5l12-5z" fill="#427363"/>
<path transform="translate(651,375)" d="m0 0h7l5 3 4 6v8h-3l-1-6h-2l-4-4-10 1-6 2-2 5-3 1-1 6h-3l-1-5 2-7 8-7 4-2z" fill="#336F57"/>
<path transform="translate(289,292)" d="m0 0 6 2 5 5-3 2-9-2-5 5-3 1 6 7 4 2 6 7 5 5-1 3-4-2-10-9-8-7-4-4 2-4 10-10z" fill="#2F6A53"/>
<path transform="translate(539,244)" d="m0 0h3l-2 5-9 17h2l3-3v8l3 3 9 4-1 5-4 1-8-4-9-6 2-9 8-16z" fill="#589179"/>
<path transform="translate(484,549)" d="m0 0h25l19 5 17 8 6 5-1 2-4-3-10-4-16-7-11-3h-26l-10 4-15 9-2-2 7-6 8-4z" fill="#234F76"/>
<path transform="translate(234,418)" d="m0 0h10l9 4 3 4 1 5-3-1-1 8-4 4-4 1h-8l1-2 7-2 2-2v-5l-5-5-6-3 2-3-8-1z" fill="#549278"/>
<path transform="translate(378,602)" d="m0 0h10l-1 2-34 7-10 3 6 1-3 2-17 5v-3h-2l1-6 16-4 21-5z" fill="#335B8A"/>
<path transform="translate(497,229)" d="m0 0 6 2-4 20-3 12-5 1-2-1 1-12 6-21z" fill="#27624B"/>
<path transform="translate(565,698)" d="m0 0 16 1 40 5 4 2-9 1-29-2h-15l-3 2-5-5h2v-2l-2-1z" fill="#138E56"/>
<path transform="translate(465,225)" d="m0 0 6 1 3 9-2 3-3-3 1 5h-2v11l-1 7-3 1-3-1-1-2 1-14 3-16z" fill="#2D6E54"/>
<path transform="translate(161,747)" d="m0 0h4l-1 4-2 3 1 2h-2l3 3 7 4 4 3 6 4v2h2l1 4-5-1-15-10-13-9v-4z" fill="#097E45"/>
<path transform="translate(616,299)" d="m0 0 4 1-1 5-7 7-8 7-7 6-5-1 1-5 13-12z" fill="#4F7E7F"/>
<path transform="translate(242,498)" d="m0 0 5 2 1 2v8l8-2 1-4 1-2 3 5-1 4-9 3-12 3h-4l-1-5h-3l-1 2-2-7v-6l4 1 4 8 1 4 5-2-1-13z" fill="#5D927D"/>
<path transform="translate(401,549)" d="m0 0h19l18 6 11 6 6 3h3l-2 4-1 1-1 30h-1l-2-29-1-3-4-2-15-9-16-4-14-2z" fill="#204B7F"/>
<path transform="translate(576,270)" d="m0 0 3 1 1 4-6 8 5-3 1-2h2l-2 4-6 4-4 14-4-1-2-2v-18l3 1-1-4 2-1 4 2h4l1-5z" fill="#568F77"/>
<path transform="translate(450,223)" d="m0 0 5 1 1 5v20l-2 5h-2l-1-3h-3l-1-2 1-25z" fill="#559278"/>
<path transform="translate(633,504)" d="m0 0h7l24 8 2 2-1 5-6 1-12-1 2-2 5-1 2 1-1-2h-3v-2l-8-1-11-3z" fill="#428268"/>
<path transform="translate(246,738)" d="m0 0 7 1 4 7-1 9-4 3-6-1-2-3-1-10 2-5z" fill="#21915E"/>
<path transform="translate(522,604)" d="m0 0 7 1 4 1 4 2 17 5v1l-10-1-17-3-11-1h-20l-13 2h-6l4-3 11-2z" fill="#FCFCFC"/>
<path transform="translate(595,279)" d="m0 0 7 3 3 5v5l-5-5v-2h-2v-2l-5 1-1 9 3 6 1 7-2 4h-3l-1-7-3-5-2-6 1-5 6-7z" fill="#265E59"/>
<path transform="translate(346,247)" d="m0 0 4 1 13 24 1 6-5 1-5-8-9-20z" fill="#3B7564"/>
<path transform="translate(647,483)" d="m0 0 9 1 1 2 2-2 9 1 1 4-2 11 2 4-5-1 1-13h-4l-4 10-3 2-2-2v-14l-5-2z" fill="#568D77"/>
<path transform="translate(213,718)" d="m0 0h5l1 4-2 2-15 3v2l-3-1-3 3h-3v2h-3l-2-5 1-5 21-4z" fill="#108F55"/>
<path transform="translate(544,565)" d="m0 0 10 4 6 8 3 5 3 9 5 8 4 8-1 4h-2l-10-19-11-20-7-6z" fill="#3E6B62"/>
<path transform="translate(401,229)" d="m0 0h6l-1 5-9 2-1 4 1 2 13-1 1 4h-3l-1-1-11 2-2-1v-5h-2l1 16h-1l-4-20 1-4z" fill="#3C7C62"/>
<path transform="translate(644,336)" d="m0 0 1 4-5 6v1l10 1 2 2-1 5-16 1-10 3 2-4 2-3 5-3 7-10z" fill="#4A876E"/>
<path transform="translate(245,452)" d="m0 0 6 2 4 5 1 3v7l-4 6-4-1h2l-1-2-6 2h-9v-1l13-4 1-1v-6l-5-5 1-4z" fill="#39725C"/>
<path transform="translate(539,724)" d="m0 0 7 1 3 4v10l-4 5-3 1-4-4-1-5 1-11z" fill="#109B5C"/>
<path transform="translate(665,799)" d="m0 0 5 1 9 4-1 2 1 1 2-2 1 4h2l-1 4-9-1-13-4-1-2z" fill="#067D43"/>
<path transform="translate(691,796)" d="m0 0 2 4v5l2 2 4-2 2 3 6 2-1 5-9-3-2-2-8-3-5-2-1-2-9-1-7-3 1-2 10 1 15 2z" fill="#0D9959"/>
<path transform="translate(665,459)" d="m0 0 4 1 4 4 1 8-2 2-6-7-3-2-7 1-10 6-5 1-1-4 1-2h6v-2l11-4h7z" fill="#306562"/>
<path transform="translate(239,374)" d="m0 0h3v3l-5 2-1 10 5 5 11 2h8l-2 3-3 1h-8l-10-2-6-8 1-10 4-5z" fill="#29654E"/>
<path transform="translate(481,227)" d="m0 0h6l1 5-2 21-1 5h-2l-1-2v-12h-2v-12z" fill="#529177"/>
<path transform="translate(384,601)" d="m0 0h31l20 4 4 2-1 2-9-1-15-3-27-1z" fill="#3E668B"/>
<path transform="translate(382,606)" d="m0 0h27l17 3 16 5 2 2-9-2-17-4-6-1h-27l-24 4h-5l3-2z" fill="#FEFEFE"/>
<path transform="translate(267,314)" d="m0 0 3 1-1 5-6 7v5l8 4 1 5-6-1-10-7-1-3 7-10z" fill="#396E5B"/>
<path transform="translate(616,556)" d="m0 0 3 1 3 5 6 5 4 6v2l-10-1-2-1-1-5 1-1-2-1-2 6-7-1-1-3 5-1 4-5z" fill="#548B75"/>
<path transform="translate(595,283)" d="m0 0h3v2h2l4 6v-6l3 2 1 3v7l-2 3-4-2-2-9-2-2h-5l3 9 3 6-1 7-4 3 1-8-3-9-1-2v-6z" fill="#5E927D"/>
<path transform="translate(289,330)" d="m0 0 7 2-2 4-7 10-2 4-3 1-10-7v-3l5 1 6 1 5-10z" fill="#487767"/>
<path transform="translate(274,535)" d="m0 0 2 1v4l-23 11-7 2-2-4 5-3 6-1 1-2 13-5z" fill="#2A654F"/>
<path transform="translate(376,235)" d="m0 0 3 1 2 10 1 14-2 4v-6l-2 1v6l-4-2-4-6 1-2 5 5-1-5v-19z" fill="#316373"/>
<path transform="translate(294,300)" d="m0 0h6l1 6 10 2v1h-10l-3-3-4 5 4 1-3 1 1 5 6 7h-3l-9-9v-2l-5-2-5-5v-2h2l3 3 4 1 4-2z" fill="#568E77"/>
<path transform="translate(569,260)" d="m0 0 5 1 9 8 2 5-2 4h-3l-2 4-4 1 2-4 3-4-1-4-6-5v-2l-6 2-3 5-2-1 6-9z" fill="#2B615F"/>
<path transform="translate(187,781)" d="m0 0 3 1 1 6-2 3 1 2 5 2-3 6h-2v2l4 1-2 1v2l-5 2v-17h-2v-7z" fill="#0D8D53"/>
<path transform="translate(261,345)" d="m0 0 5 2 1 1-1 9-1 7 6 3v1l-7-1-9-5 3-4 1-8-5 1-4 3-1-5 5-2 5 1 2 1 1 10 3-6-2-1 2-2z" fill="#669582"/>
<path transform="translate(626,320)" d="m0 0h3l-2 5-16 12-3 2-5-1 3-3h2l2-4 4-4 10-6z" fill="#3E6F5F"/>
<path transform="translate(614,548)" d="m0 0 4 2 8 8 10 14-2 2-2-3-4-2-4-5-5-5-5-6z" fill="#548974"/>
<path transform="translate(642,481)" d="m0 0h14l13 2h4l-1 12-2 7-4-1 2-16h-9l-3 2v-3l-13-1z" fill="#386C5A"/>
<path transform="translate(650,518)" d="m0 0 9 1-2 2-5 2-1 5h6l3 2-1 5-11-3v-3l-2-1 1-3-4-1 1-3 5-2z" fill="#379F70"/>
<path transform="translate(484,549)" d="m0 0h25v1l-6 1-20 1-10 4-15 9-2-2 7-6 8-4z" fill="#32615E"/>
<path transform="translate(240,372)" d="m0 0h12l10 5v3l-7-4-7-1v2l-8 3-3 6 6 7 2 2-6-1-4-5v-6l2-4 5-2v-3l-5 1z" fill="#4C7F6D"/>
<path transform="translate(731,747)" d="m0 0 8 1 9 6-5 5-3 2-5-1-1-4 3-3-5-2-2-3z" fill="#077E44"/>
<path transform="translate(226,455)" d="m0 0h6l-1 4-3 3v7l5 4-5 1-2-3-2 3-3-5v-7l4-6z" fill="#3F7060"/>
<path transform="translate(464,226)" d="m0 0h1v24l1-4h2l-1 12-3 1-3-1-1-2 1-14z" fill="#5A927B"/>
<path transform="translate(580,774)" d="m0 0h7l9 1 21 3v3h-5v2l-18-2v-1l10-1-22-3z" fill="#0F8E54"/>
<path transform="translate(649,409)" d="m0 0h8v2h5l-8 4h-5l-1 2h-9l-1-4 7-3z" fill="#2A6E53"/>
<path transform="translate(281,551)" d="m0 0h3l1 4-10 7-5 3-6-1 2-1 2-4z" fill="#29664F"/>
<path transform="translate(225,789)" d="m0 0 5 1 8-1-2 5-17 4h-4l2-4 5-4z" fill="#0D8C51"/>
<path transform="translate(257,527)" d="m0 0 3 1-3 3 3 6v3l12-5 2 1-12 6-6 1-1 3-4-1 3-2-2-8h2l1-7z" fill="#61947F"/>
<path transform="translate(642,448)" d="m0 0h21l11 1-1 4-5-1-13-1-2 1-12 1z" fill="#327058"/>
<path transform="translate(209,799)" d="m0 0 1 2h2l1 2 7-1 10-1-3 2-15 5-10 4-1-5 7-2v-5z" fill="#118E55"/>
<path transform="translate(499,601)" d="m0 0h22l23 4v1l-9 1-17-3-22-1z" fill="#2E5B72"/>
<path transform="translate(251,363)" d="m0 0 10 1 5 3 6 1v6l-3 1-14-7-4-3z" fill="#346856"/>
<path transform="translate(247,743)" d="m0 0 3 1 1 6-3 3 1 2 4-2 2-10 2 3-1 9-4 3-6-1-2-3v-5l2-1z" fill="#1DA064"/>
<path transform="translate(618,566)" d="m0 0 3 1-1 6 2 1-4 1h-8l-10-3 2-4 5-1 2 3 7 1z" fill="#356C57"/>
<path transform="translate(264,520)" d="m0 0h4l1 4-7 4h-7l-1 7-3-1 1-3-6 1v-3l14-6h2v-2z" fill="#3F7463"/>
<path transform="translate(447,562)" d="m0 0 5 1 6 1-2 4-1 1-1 30h-1l-2-29-1-3-4-2-1-2z" fill="#1F4B78"/>
<path transform="translate(591,546)" d="m0 0 2 2-9 12-5-1-1-6 6-4z" fill="#486A54"/>
<path transform="translate(307,273)" d="m0 0 4 2 6 4v2l-6-1-2-1 4 12-1 3-4-4-3-10-1-5z" fill="#2E6752"/>
<path transform="translate(711,811)" d="m0 0 2 1v11l-5-1-10-3-2-3 11-1 3-1z" fill="#077E45"/>
<path transform="translate(337,594)" d="m0 0 2 1-10 18-2 6h-4l1-5 10-18z" fill="#376084"/>
<path transform="translate(253,429)" d="m0 0 4 2-1 8-4 6-1 1h-12l1-3 9-2 3-3z" fill="#366D59"/>
<path transform="translate(617,780)" d="m0 0 20 2 1 2 2 1-4 2-24-4v-2z" fill="#078046"/>
<path transform="translate(349,571)" d="m0 0h2l-2 5-10 18-4 2 2-6 8-16z" fill="#316063"/>
<path transform="translate(668,407)" d="m0 0h3l1 3v17l-4-1-2-14-1-2z" fill="#326E59"/>
<path transform="translate(512,241)" d="m0 0h2v18l-1 2h-2v-12zm14 0 2 1-5 9h-2l-1 3h-2v2l-4 2 2-4 7-9z" fill="#78B299"/>
<path transform="translate(647,349)" d="m0 0 5 1-1 5h-17l1-4 2-1z" fill="#3B6B5C"/>
<path transform="translate(404,246)" d="m0 0h2v2l-7 2 2 7 11-1v2l-6 2h-9l-2-2v-9l2-2z" fill="#569078"/>
<path transform="translate(435,229)" d="m0 0 2 3 3 16 1 3h6l-1 3h-7l-4-5z" fill="#40A578"/>
<path transform="translate(718,755)" d="m0 0 2 1v2l4 1v3h-3v2l-4 2-5 2-2-5 1-4h3 2z" fill="#089957"/>
<path transform="translate(281,313)" d="m0 0 5 2 4-1 6 7 5 5-1 3-4-2-10-9z" fill="#326754"/>
<path transform="translate(538,258)" d="m0 0 12 5 2 3v3l-3 1-8-4-4-3z" fill="#437D6B"/>
<path transform="translate(497,229)" d="m0 0 2 1-2 7-5 26h-3l1-12 6-21z" fill="#5E967F"/>
<path transform="translate(644,745)" d="m0 0 5 3 1 8-1 4h-6v-14z" fill="#18935B"/>
<path transform="translate(260,513)" d="m0 0 4 1-10 4-15 3-5 2-2-1-1-8 1 3 3 1 2 1 18-5z" fill="#59917A"/>
<path transform="translate(637,389)" d="m0 0 2 2 3 9h-2v2l3 1v3l-4-1-5-5-1-4h1l2-6z" fill="#5C917B"/>
<path transform="translate(584,535)" d="m0 0 5 1v2l-14 7h-6v-2l12-7z" fill="#5D6F51"/>
<path transform="translate(577,525)" d="m0 0h6v2l-15 7-10 4-2-1 16-10z" fill="#D38330"/>
<path transform="translate(260,510)" d="m0 0h3l-1 3-21 6-7 1v-2l-2-1-1-5h3l1 5 24-6z" fill="#2C634F"/>
<path transform="translate(641,476)" d="m0 0 29 5-1 3-13-2-15-2z" fill="#588D78"/>
<path transform="translate(248,404)" d="m0 0 3 1 1 9-2 2h-6l-1-4 3-7z" fill="#417964"/>
<path transform="translate(493,601)" d="m0 0h6v1l19 1v1l-23 1-14 2-1-4z" fill="#598478"/>
<path transform="translate(621,538)" d="m0 0 10 3 4 2h11l-3 2-9 1-2 1v-3l-3 1-1 2-9-6z" fill="#2F6857"/>
<path transform="translate(592,280)" d="m0 0 2 1-4 5v8l2 5v7l-4-5-3-9 1-5z" fill="#659883"/>
<path transform="translate(568,258)" d="m0 0 3 1-5 4-4 8-2 5-5 4h-2l-2 4-2 1 2-4 13-19z" fill="#568289"/>
<path transform="translate(530,239)" d="m0 0h3l-1 6-4 5-7 6-2 3-2-1 4-7h2l2-5 3-6z" fill="#356C72"/>
<path transform="translate(629,519)" d="m0 0 8 1 4 5v2h-9l-5-3z" fill="#3A715D"/>
<path transform="translate(475,604)" d="m0 0h5l1 3-18 5-4 1v-4z" fill="#2D5588"/>
<path transform="translate(234,394)" d="m0 0 8 2v-1l10 1h8l-2 3-3 1h-8l-10-2z" fill="#326A55"/>
<path transform="translate(329,258)" d="m0 0 2 1v8l-6 1-4 1-2-3 5-5z" fill="#467867"/>
<path transform="translate(439,607)" d="m0 0 5 1 5 2v3l4-1 2-3v2l3-1 1 3-4 4-5-2-13-5z" fill="#4F7593"/>
<path transform="translate(499,230)" d="m0 0 4 1-4 20-3 12-2 1 1-13 5-17z" fill="#5E957E"/>
<path transform="translate(604,285)" d="m0 0 3 2 1 3v7l-2 3-4-2-2-9 1-2 3 4z" fill="#568976"/>
<path transform="translate(248,375)" d="m0 0h7l8 4h1l2 7-5-1-5-5-8-2z" fill="#2E6752"/>
<path transform="translate(342,275)" d="m0 0 3 3 3 5v4l-5 1-6-10 1-2 1 3h2z" fill="#4B7D76"/>
<path transform="translate(246,459)" d="m0 0 5 1 1 1v6l-4 6-5 1h-9v-1l13-4 1-1v-6z" fill="#598E78"/>
<path transform="translate(314,296)" d="m0 0 4 3 2 4-1 5-5 3-6-1v-1h6l-1-8h2z" fill="#3F8A6B"/>
<path transform="translate(613,303)" d="m0 0 2 1-3 2zm-2 3m-1 1m-2 1h2l-2 5-11 9-4 3v-4l8-7h2l1-3z" fill="#295D5D"/>
<path transform="translate(579,291)" d="m0 0 2 1 2 13 3 3h5l-1 2h-6l-4-5-1-2v-7h-2v3l-2-1 3-6z" fill="#639C85"/>
<path transform="translate(422,603)" d="m0 0 9 1 8 3-1 2-9-1-15-3v-1h7z" fill="#3E6780"/>
<path transform="translate(667,459)" d="m0 0 6 5 1 8-2 2-6-7-3-3 5 1 3 1v-2l-4-1z" fill="#558574"/>
<path transform="translate(267,314)" d="m0 0 3 1-1 5-6 7-1 5-2-4 1-4v-3z" fill="#386E5B"/>
<path transform="translate(323,284)" d="m0 0 7 2 10 5-1 3-3 1-7-4-6-5z" fill="#467A66"/>
<path transform="translate(309,273)" d="m0 0 4 1 17 11v2l-7-2-5-2-2-2 1-2-5-2z" fill="#467465"/>
<path transform="translate(606,412)" d="m0 0 2 3 1 5-7 3h-6l6-7z" fill="#4A6F59"/>
<path transform="translate(355,243)" d="m0 0 4 2v2h2l3 6 7 9 2 5-3-1-10-14z" fill="#5C8D7A"/>
<path transform="translate(685,788)" d="m0 0h4l-1 7-1 1-10-1-3-2h4l2 1v-2h2v-2z" fill="#0C9054"/>
<path transform="translate(642,481)" d="m0 0h14l13 2 2 1v2l-3 1v-2h-9l-3 2v-3l-13-1z" fill="#296053"/>
<path transform="translate(653,546)" d="m0 0v3h-12l4 8v3h-2l-4-6-1-5 1-2z" fill="#3B8968"/>
<path transform="translate(595,279)" d="m0 0 7 3 3 5v5l-5-5v-2h-2v-2l-5 1-1 2v-3z" fill="#28664E"/>
<path transform="translate(614,551)" d="m0 0 4 1 5 6v2h2l5 8-1 2-5-6-5-5-5-6z" fill="#2B634F"/>
<path transform="translate(646,528)" d="m0 0h11l3 2-1 5-11-3v-3z" fill="#3B755F"/>
<path transform="translate(242,376)" d="m0 0h6l-3 2-5 2-3 6 6 7 2 2-6-1-4-5v-6l2-4z" fill="#6F9B89"/>
<path transform="translate(244,358)" d="m0 0h6l7 2v2l2 1v2l-10-1-6-3z" fill="#2C6951"/>
<path transform="translate(614,300)" d="m0 0 2 1-6 7-6 4-5 5-6 5v-3l13-12z" fill="#6F9E8B"/>
<path transform="translate(541,248)" d="m0 0v3l-4 13-5 4h-2l2-5 7-14z" fill="#1C4D6C"/>
<path transform="translate(228,501)" d="m0 0 4 1 4 8-2 4v-2h-3l-1 2-2-7z" fill="#4F7F6E"/>
<path transform="translate(655,450)" d="m0 0 5 1-2 1 2 5-11-2-6-2v-1l10-1z" fill="#376A5A"/>
<path transform="translate(575,305)" d="m0 0h3l5 6h7l3 2-4 3-6-1-8-8z" fill="#528571"/>
<path transform="translate(698,805)" d="m0 0 3 3 6 2-1 5-9-3-3-4z" fill="#089856"/>
<path transform="translate(643,377)" d="m0 0 4 1-4 5-5 2-6 5 1-5 8-7z" fill="#2C6750"/>
<path transform="translate(279,322)" d="m0 0 3 1-1 5-3 5-5 1 1-5 3-6z" fill="#4E7D6D"/>
<path transform="translate(530,269)" d="m0 0 1 4 8 4 1 3-2 2-11-7 1-5z" fill="#366E5A"/>
<path transform="translate(394,235)" d="m0 0 2 2 1 5 13-1 1 4h-3l-1-1-11 2-2-1-1-8z" fill="#529478"/>
<path transform="translate(433,554)" d="m0 0 9 3 7 4-4 3-12-7z" fill="#316061"/>
<path transform="translate(633,504)" d="m0 0h7v2l11 3v2l-8-1-10-2z" fill="#2D6653"/>
<path transform="translate(639,383)" d="m0 0h4v2h-2l-2 5-3 1-1 6h-3l-1-5 7-8z" fill="#457766"/>
<path transform="translate(624,318)" d="m0 0 4 1-4 3-3-1zm-5 4 2 1-4 4-5 3-4 5-6 2 2-4 6-4z" fill="#739C8C"/>
<path transform="translate(257,343)" d="m0 0 4 1 5 7-2 1 1 3-3 6h-1v-12l-3-1z" fill="#39695A"/>
<path transform="translate(338,253)" d="m0 0 3 3-1 3-4 2-2 4-1-3h-2l2-6z" fill="#437864"/>
<path transform="translate(633,573)" d="m0 0 4 1 1 5-1 2-8-1-3-2 4-2h2z" fill="#2C6850"/>
<path transform="translate(388,549)" d="m0 0h13l8 1v1l-22 1-8 2-2-2 5-2z" fill="#35645C"/>
<path transform="translate(539,244)" d="m0 0h3l-2 5-5 9-5 4 2-6z" fill="#40A276"/>
<path transform="translate(356,732)" d="m0 0 3 1 4 7-1 3-5-1-1-1z" fill="#12955A"/>
<path transform="translate(455,728)" d="m0 0 4 2 1 2v7l-4 1-1-1-1-10z" fill="#329268"/>
<path transform="translate(339,615)" d="m0 0h10l-3 2-17 5v-3l3-3z" fill="#FEFEFE"/>
<path transform="translate(269,541)" d="m0 0 3 1-19 9-7 2-1-2 7-1v-2l6-1v-2z" fill="#4C7E6C"/>
<path transform="translate(580,774)" d="m0 0h7l9 1 12 2v2l-19-2-9-2z" fill="#0D8C51"/>
<path transform="translate(264,519)" d="m0 0 4 1zm-3 1 3 1h-2v2l-13 6-3-1 3-3z" fill="#5D947D"/>
<path transform="translate(556,278)" d="m0 0 2 4-3 6h-5v-4l5-5z" fill="#366974"/>
<path transform="translate(356,242)" d="m0 0 5 1 9 10-1 2-5-4-1 2-2-6h-2z" fill="#3C7166"/>
<path transform="translate(284,742)" d="m0 0 4 1v10h-3l-2-5v-5z" fill="#21915F"/>
<path transform="translate(633,320)" d="m0 0 4 4 1 5-5 1-3-8z" fill="#558272"/>
<path transform="translate(430,766)" d="m0 0h20l4 2-19 1h-14l4-2z" fill="#0E8D53"/>
<path transform="translate(251,363)" d="m0 0 11 4 5 4v2l-9-3-7-5z" fill="#5C8E7A"/>
<path transform="translate(526,250)" d="m0 0 2 1-7 10-5 5-1-3 4-5z" fill="#679884"/>
<path transform="translate(187,781)" d="m0 0 3 1 1 6-1 2-5 2v-7z" fill="#148C56"/>
<path transform="translate(656,515)" d="m0 0 8 1 1 3-6 1-12-1 2-2 5-1 2 1z" fill="#23644E"/>
<path transform="translate(507,233)" d="m0 0 5 1 2 2v5h-2v8h-1l-1-6h-1v-7h-2z" fill="#34745B"/>
<path transform="translate(361,559)" d="m0 0 2 1-4 5-6 4-1 2-5 2 2-4 7-7z" fill="#1F4C77"/>
<path transform="translate(608,311)" d="m0 0 4 1-8 7-7 6-3-1 12-11h2z" fill="#649380"/>
<path transform="translate(663,802)" d="m0 0 4 3v2l4 2 1 2-11-3-1-2z" fill="#2E6B52"/>
<path transform="translate(554,614)" d="m0 0 9 1 12 4 2 3-6-1-11-4-6-2z" fill="#FEFEFE"/>
<path transform="translate(575,609)" d="m0 0 3 4 2 5-5 1-3-3 1-6z" fill="#4D767D"/>
<path transform="translate(618,566)" d="m0 0 3 1-1 6 2 1-4 1h-7l1-3 4-1z" fill="#27694E"/>
<path transform="translate(355,264)" d="m0 0h2v4l5 2 2 5v3h-2l-4-6v-2l-3-1z" fill="#286159"/>
<path transform="translate(481,244)" d="m0 0h1l1 12 1 5-3 1-2-6 1-8z" fill="#3D6C5D"/>
<path transform="translate(529,726)" d="m0 0h2v9l-2 6h-2v-10z" fill="#0E8D53"/>
<path transform="translate(622,566)" d="m0 0 5 2 1 5-8-1-1-4z" fill="#FEFEFE"/>
<path transform="translate(665,459)" d="m0 0 2 1 1 3 3 1v2l-4-1h-10v-2l-2-1 3-1h7z" fill="#296854"/>
<path transform="translate(254,347)" d="m0 0 5 1 2 1v7l-2 1v-7l-5 1-4 3-1-5z" fill="#699785"/>
<path transform="translate(309,279)" d="m0 0 9 3 3 3h-6v3l-3-1-3-5z" fill="#629A83"/>
<path transform="translate(349,571)" d="m0 0h2l-2 5-3 5-5 2 2-6 5-5z" fill="#29576A"/>
<path transform="translate(503,550)" d="m0 0h11l11 3-2 1-1 2-13-4-6-1z" fill="#2E5A70"/>
<path transform="translate(255,525)" d="m0 0 2 1-3 9-3-1 1-3-6 1v-3z" fill="#2C6550"/>
<path transform="translate(640,505)" d="m0 0 7 1 17 6v1h-6l-13-5-5-2z" fill="#5B8F7A"/>
<path transform="translate(242,498)" d="m0 0 5 2 1 3-1 8-3-3-1-6-2-1z" fill="#38715D"/>
<path transform="translate(658,449)" d="m0 0h16l-1 4-5-1-10-1z" fill="#2A634E"/>
<path transform="translate(261,323)" d="m0 0 1 2-1 7h2v2l-4-1-4-2 4-7z" fill="#26644B"/>
<path transform="translate(353,267)" d="m0 0h2l4 5 3 4v3l-4-1-5-9z" fill="#598677"/>
<path transform="translate(544,246)" d="m0 0 5 1 9 6 1 4-2 2-3-2 1-5-4-1-7-4z" fill="#4D8D72"/>
<path transform="translate(494,247)" d="m0 0 2 1-1 14-1 2-3-1z" fill="#286251"/>
<path transform="translate(526,241)" d="m0 0 2 1-5 9h-2l-1 3-3-1 6-8z" fill="#51977A"/>
<path transform="translate(531,769)" d="m0 0h13l13 2v1h-16l-10-2z" fill="#0E8D53"/>
<path transform="translate(502,730)" d="m0 0h2v10l-5-1 1-7z" fill="#23A369"/>
<path transform="translate(542,727)" d="m0 0 4 1v11h-2l-3-9z" fill="#4D846E"/>
<path transform="translate(575,511)" d="m0 0 3 1-14 7-5 2-3-1z" fill="#CA8032"/>
<path transform="translate(254,379)" d="m0 0 5 2 3 4-1 8-3 1 1-7-2-5zm2 15 2 1h-3z" fill="#60947F"/>
<path transform="translate(401,229)" d="m0 0h6v4h-8l-5 1-1-2z" fill="#205961"/>
<path transform="translate(334,612)" d="m0 0 3 1-1 3-9 3 1-6z" fill="#6A8C9E"/>
<path transform="translate(642,513)" d="m0 0h10l-1 3-5 1h-7l1-3z" fill="#5EBC91"/>
<path transform="translate(533,259)" d="m0 0 1 2-3 6v3h-3l-1 4-1-3 4-9z" fill="#479171"/>
<path transform="translate(376,252)" d="m0 0h1l1 13-4-2-4-6 1-2 5 5-1-7z" fill="#59927B"/>
<path transform="translate(251,342)" d="m0 0h6l1 4 2 1h-6v-2l-6 1z" fill="#4F7C6D"/>
<path transform="translate(378,241)" d="m0 0h1l1 7 1 1 1 11-2 4-2-15z" fill="#497E6A"/>
<path transform="translate(530,603)" d="m0 0 8 1 6 1v1l-9 1-10-2v-1z" fill="#47766B"/>
<path transform="translate(629,519)" d="m0 0 8 1 1 3-11 1z" fill="#29674E"/>
<path transform="translate(439,607)" d="m0 0 5 1 5 2-3 3-9-3z" fill="#547C75"/>
<path transform="translate(667,491)" d="m0 0h1l-1 9 2 4-5-1 1-8z" fill="#478069"/>
<path transform="translate(273,341)" d="m0 0 4 1 7 3v4l-5-2-6-4z" fill="#246149"/>
<path transform="translate(510,257)" d="m0 0h1l1 10-5 1 1-7z" fill="#306A56"/>
<path transform="translate(490,251)" d="m0 0h3l-1 12h-3z" fill="#549B7D"/>
<path transform="translate(720,766)" d="m0 0 2 1v2l3 1-5 4h-2v-2h-2l1-3h2z" fill="#048044"/>
<path transform="translate(648,752)" d="m0 0 2 1-1 7h-6v-4h3z" fill="#2A9E6A"/>
<path transform="translate(564,611)" d="m0 0 9 2v3l-8-1-3-2z" fill="#42688F"/>
<path transform="translate(628,540)" d="m0 0 7 3h11l-3 2-9 1-2 1v-3h-3z" fill="#6F9588"/>
<path transform="translate(253,429)" d="m0 0 4 2-1 8-2 1-2-2z" fill="#226B4D"/>
<path transform="translate(252,345)" d="m0 0h2l-1 4h-2l-1 2-3 2-1-4 2-3z" fill="#2B654F"/>
<path transform="translate(539,263)" d="m0 0 4 1 3 2h3l2-2 1 5-3 1-8-4z" fill="#6C9988"/>
<path transform="translate(435,229)" d="m0 0 2 3 1 5-1 3v11l-2-2z" fill="#578B76"/>
<path transform="translate(482,727)" d="m0 0 4 1v13l-2 1-1-13z" fill="#178C57"/>
<path transform="translate(414,728)" d="m0 0 4 4-1 9h-2l-1-5z" fill="#1D9D63"/>
<path transform="translate(421,550)" d="m0 0 9 2 3 1 1 3-9-2-4-2z" fill="#235070"/>
<path transform="translate(261,345)" d="m0 0 5 2 1 1-1 9-1 2h-2l2-6-2-1 2-2z" fill="#578A76"/>
<path transform="translate(623,308)" d="m0 0 4 2 3 4v2l-3-1-4-4 1 3-4-1z" fill="#639380"/>
<path transform="translate(590,285)" d="m0 0h2v8l2 6h-3l-2-5v-8z" fill="#276050"/>
<path transform="translate(309,273)" d="m0 0 4 1 11 7-3 1-9-5z" fill="#5D8F7B"/>
<path transform="translate(567,264)" d="m0 0h5l-6 7-3 4 1-7z" fill="#649C85"/>
<path transform="translate(568,258)" d="m0 0 3 1-5 4-5 8h-2l2-5 5-7z" fill="#4E8771"/>
<path transform="translate(539,724)" d="m0 0 5 1-2 7-2 1-2-8z" fill="#0B9456"/>
<path transform="translate(476,551)" d="m0 0h5l-4 3-4 2-7 1v-2z" fill="#2D5975"/>
<path transform="translate(267,314)" d="m0 0 3 1-1 5-2 1-1-2-6 5 2-4z" fill="#4B7D6A"/>
<path transform="translate(309,290)" d="m0 0 4 4 3 9h-3-1l-3-10z" fill="#679884"/>
<path transform="translate(469,235)" d="m0 0 3 1 1 2v7l-3-1v-3l-2-1 1-1-1-2z" fill="#59917A"/>
<path transform="translate(491,729)" d="m0 0h2v13l-1-2h-2z" fill="#3B8C69"/>
<path transform="translate(328,610)" d="m0 0 1 3-2 6h-4l1-5z" fill="#1C487C"/>
<path transform="translate(627,569)" d="m0 0 4 2 1 4-10-1-2-2 8 1z" fill="#43856A"/>
<path transform="translate(320,534)" d="m0 0 5 1 7 4-4 1-8-4z" fill="#867544"/>
<path transform="translate(260,510)" d="m0 0h3l-1 3-7 2h-7l3-2z" fill="#25624A"/>
<path transform="translate(644,336)" d="m0 0 1 4-5 6-1 3-2-4 4-6z" fill="#76A08F"/>
<path transform="translate(466,238)" d="m0 0h1v8l-2 8h-1v-11z" fill="#2C6350"/>
<path transform="translate(224,801)" d="m0 0h6l-3 2-5 2h-9l4-2z" fill="#0E9055"/>
<path transform="translate(473,731)" d="m0 0 4 1-3 1 1 10-3-1v-10z" fill="#22905F"/>
<path transform="translate(378,602)" d="m0 0h10l-1 2-12 2 1-3z" fill="#244E82"/>
<path transform="translate(314,296)" d="m0 0 4 3 2 4v4l-3-1-3-7z" fill="#2A6953"/>
<path transform="translate(595,279)" d="m0 0 5 2v4h-2v-2l-5 1-1 2v-3z" fill="#346A58"/>
<path transform="translate(535,257)" d="m0 0 2 3-1 4-4 4h-2l2-5z" fill="#286356"/>
<path transform="translate(408,242)" d="m0 0 1 4-5 1h-7l1-2 9-2z" fill="#245F51"/>
<path transform="translate(430,604)" d="m0 0 9 3-1 2-9-1z" fill="#426887"/>
<path transform="translate(639,549)" d="m0 0 3 2 3 6v3h-2l-4-6z" fill="#508972"/>
<path transform="translate(246,459)" d="m0 0 5 1 1 1v6l-3 1-2-7z" fill="#528E75"/>
<path transform="translate(668,413)" d="m0 0 3 2v12h-2z" fill="#1A5064"/>
<path transform="translate(649,409)" d="m0 0 4 1 3 2-13 1-1-2z" fill="#84B19E"/>
<path transform="translate(235,387)" d="m0 0 4 2 6 5-4 1-5-4z" fill="#5B927B"/>
<path transform="translate(346,247)" d="m0 0 4 1 3 6-3-1-3-3 1 6-2-3-1-5z" fill="#588C77"/>
<path transform="translate(392,240)" d="m0 0h2l1 8-1 8h-1l-1-7z" fill="#215E4C"/>
<path transform="translate(337,730)" d="m0 0 3 1v5l-2 3h-2z" fill="#0D8D53"/>
<path transform="translate(653,451)" d="m0 0 1 4-2 1-9-3v-1z" fill="#60917E"/>
<path transform="translate(513,260)" d="m0 0 2 1v2l-1 5-1 1h-5l3-2v-6z" fill="#447965"/>
<path transform="translate(528,240)" d="m0 0h4l-2 4-4 5-2-1z" fill="#1D5168"/>
<path transform="translate(600,745)" d="m0 0h1v5l-4 2-2-1 1-4z" fill="#40B07D"/>
<path transform="translate(228,501)" d="m0 0 4 1v6l-4-1z" fill="#2B6D53"/>
<path transform="translate(641,332)" d="m0 0 3 1v5l-5 1z" fill="#2E6652"/>
<path transform="translate(281,313)" d="m0 0 5 2 8 7v2l-4-2-9-8z" fill="#6C9887"/>
<path transform="translate(595,283)" d="m0 0h3v2h2l-1 3-4-1h-2v5h-1v-6z" fill="#83A99A"/>
<path transform="translate(347,250)" d="m0 0 3 1 3 8-1 2-1-4h-3z" fill="#1D506C"/>
<path transform="translate(395,245)" d="m0 0 2 1-1 3v9l1 2h-2l-1 2-1-6z" fill="#386859"/>
<path transform="translate(304,298)" d="m0 0 4 4-1 2-3-3z" fill="#FEFEFE"/>
<path transform="translate(326,300)" d="m0 0 2 1z" fill="#83CBAA"/>
<path transform="translate(329,298)" d="m0 0 2 1z" fill="#FEFEFE"/>
<path transform="translate(605,325)" d="m0 0" fill="#FEFEFE"/>
<path transform="translate(606,324)" d="m0 0" fill="#FEFEFE"/>
<path transform="translate(607,323)" d="m0 0" fill="#FEFEFE"/>
<path transform="translate(614,318)" d="m0 0" fill="#FEFEFE"/>
<path transform="translate(328,299)" d="m0 0" fill="#089957"/>
<path transform="translate(331,297)" d="m0 0" fill="#FEFEFE"/>
</svg>
